<svg width="22" height="23" viewBox="0 0 22 23" fill="none" xmlns="http://www.w3.org/2000/svg">
<g clip-path="url(#clip0_145_29)">
<path d="M18.1234 2.994H16.0882V1.97637C16.0882 1.70648 15.9809 1.44764 15.7901 1.2568C15.5993 1.06595 15.3404 0.95874 15.0705 0.95874C14.8006 0.95874 14.5418 1.06595 14.351 1.2568C14.1601 1.44764 14.0529 1.70648 14.0529 1.97637V2.994H7.94713V1.97637C7.94713 1.70648 7.83991 1.44764 7.64907 1.2568C7.45823 1.06595 7.19939 0.95874 6.9295 0.95874C6.65961 0.95874 6.40077 1.06595 6.20993 1.2568C6.01909 1.44764 5.91187 1.70648 5.91187 1.97637V2.994H3.87662C3.06694 2.994 2.29043 3.31564 1.7179 3.88817C1.14537 4.46069 0.82373 5.23721 0.82373 6.04688V18.2584C0.82373 19.0681 1.14537 19.8446 1.7179 20.4171C2.29043 20.9897 3.06694 21.3113 3.87662 21.3113H18.1234C18.9331 21.3113 19.7096 20.9897 20.2821 20.4171C20.8547 19.8446 21.1763 19.0681 21.1763 18.2584V6.04688C21.1763 5.23721 20.8547 4.46069 20.2821 3.88817C19.7096 3.31564 18.9331 2.994 18.1234 2.994ZM19.141 18.2584C19.141 18.5283 19.0338 18.7871 18.843 18.978C18.6521 19.1688 18.3933 19.276 18.1234 19.276H3.87662C3.60672 19.276 3.34789 19.1688 3.15704 18.978C2.9662 18.7871 2.85899 18.5283 2.85899 18.2584V11.135H19.141V18.2584ZM19.141 9.09977H2.85899V6.04688C2.85899 5.77699 2.9662 5.51815 3.15704 5.32731C3.34789 5.13647 3.60672 5.02925 3.87662 5.02925H5.91187V6.04688C5.91187 6.31677 6.01909 6.57561 6.20993 6.76645C6.40077 6.9573 6.65961 7.06451 6.9295 7.06451C7.19939 7.06451 7.45823 6.9573 7.64907 6.76645C7.83991 6.57561 7.94713 6.31677 7.94713 6.04688V5.02925H14.0529V6.04688C14.0529 6.31677 14.1601 6.57561 14.351 6.76645C14.5418 6.9573 14.8006 7.06451 15.0705 7.06451C15.3404 7.06451 15.5993 6.9573 15.7901 6.76645C15.9809 6.57561 16.0882 6.31677 16.0882 6.04688V5.02925H18.1234C18.3933 5.02925 18.6521 5.13647 18.843 5.32731C19.0338 5.51815 19.141 5.77699 19.141 6.04688V9.09977Z" fill="white"/>
</g>
<defs>
<clipPath id="clip0_145_29">
<rect width="21.9808" height="21.9808" fill="white" transform="translate(0.00964355 0.144531)"/>
</clipPath>
</defs>
</svg>
