<svg width="23" height="23" viewBox="0 0 23 23" fill="none" xmlns="http://www.w3.org/2000/svg">
<g clip-path="url(#clip0_145_31)">
<path d="M17.4824 17.2408C18.0222 17.2408 18.5398 17.4552 18.9215 17.8369C19.3032 18.2186 19.5176 18.7363 19.5176 19.276C19.5176 19.8158 19.3032 20.3335 18.9215 20.7152C18.5398 21.0969 18.0222 21.3113 17.4824 21.3113C16.9426 21.3113 16.4249 21.0969 16.0432 20.7152C15.6615 20.3335 15.4471 19.8158 15.4471 19.276C15.4471 18.1465 16.3528 17.2408 17.4824 17.2408ZM1.20032 0.95874H4.52796L5.48453 2.994H20.5353C20.8051 2.994 21.064 3.10121 21.2548 3.29205C21.4457 3.4829 21.5529 3.74173 21.5529 4.01162C21.5529 4.18462 21.502 4.35762 21.4308 4.52044L17.7877 11.1045C17.4417 11.7252 16.77 12.1527 16.0068 12.1527H8.42548L7.50961 13.8114L7.47908 13.9335C7.47908 14.001 7.50589 14.0657 7.5536 14.1134C7.60131 14.1611 7.66602 14.1879 7.73349 14.1879H19.5176V16.2232H7.30609C6.7663 16.2232 6.24863 16.0087 5.86694 15.627C5.48526 15.2454 5.27083 14.7277 5.27083 14.1879C5.27083 13.8317 5.36242 13.4959 5.51506 13.211L6.89904 10.7178L3.23557 2.994H1.20032V0.95874ZM7.30609 17.2408C7.84587 17.2408 8.36355 17.4552 8.74523 17.8369C9.12691 18.2186 9.34134 18.7363 9.34134 19.276C9.34134 19.8158 9.12691 20.3335 8.74523 20.7152C8.36355 21.0969 7.84587 21.3113 7.30609 21.3113C6.7663 21.3113 6.24863 21.0969 5.86694 20.7152C5.48526 20.3335 5.27083 19.8158 5.27083 19.276C5.27083 18.1465 6.17652 17.2408 7.30609 17.2408ZM16.4647 10.1174L19.2937 5.02925H6.43093L8.83253 10.1174H16.4647Z" fill="#555555"/>
</g>
<defs>
<clipPath id="clip0_145_31">
<rect width="21.9808" height="21.9808" fill="white" transform="translate(0.182678 0.144531)"/>
</clipPath>
</defs>
</svg>
