<svg width="10" height="11" viewBox="0 0 10 11" fill="none" xmlns="http://www.w3.org/2000/svg">
<g clip-path="url(#clip0_119_1238)">
<path d="M4.37504 9.66658C2.18891 9.66658 0.416707 7.80111 0.416707 5.49992C0.416707 3.19873 2.18891 1.33325 4.37504 1.33325C6.56117 1.33325 8.33337 3.19873 8.33337 5.49992C8.33337 7.80111 6.56117 9.66658 4.37504 9.66658Z" stroke="white" stroke-linecap="round" stroke-linejoin="round"/>
<path d="M5.41669 4.16659C5.15155 3.95145 4.82063 3.83379 4.47919 3.83325C3.61627 3.83325 2.91669 4.57909 2.91669 5.49992C2.91669 6.42075 3.61627 7.16659 4.47919 7.16659C4.83085 7.16659 5.15544 7.04242 5.41669 6.83325" stroke="white" stroke-linecap="round" stroke-linejoin="round"/>
<path d="M4.16669 1.33325C5.9721 1.33325 9.58335 1.74992 9.58335 5.49992C9.58335 9.24992 5.9721 9.66659 4.16669 9.66659" stroke="white"/>
</g>
<defs>
<clipPath id="clip0_119_1238">
<rect width="10" height="10" fill="white" transform="translate(0 0.5)"/>
</clipPath>
</defs>
</svg>
