<svg width="16" height="17" viewBox="0 0 16 17" fill="none" xmlns="http://www.w3.org/2000/svg">
<path d="M8.0002 15.9916C11.9601 15.9916 15.1702 12.7815 15.1702 8.82161C15.1702 4.86173 11.9601 1.65161 8.0002 1.65161C4.04032 1.65161 0.8302 4.86173 0.8302 8.82161C0.8302 12.7815 4.04032 15.9916 8.0002 15.9916Z" fill="#D68F30"/>
<path d="M1.3175 10.6851V11.4176C1.3925 11.6113 1.47625 11.8026 1.5675 11.9876V10.6851H1.3175Z" fill="#BC6F00"/>
<path d="M2.13513 12.0637V12.9437C2.23513 13.085 2.33888 13.2237 2.44763 13.3575V12.0637H2.13513Z" fill="#BC6F00"/>
<path d="M3.21753 13.2131V14.1619C3.33878 14.2706 3.46378 14.3744 3.59253 14.4744V13.2131H3.21753Z" fill="#BC6F00"/>
<path d="M4.54993 14.0867V15.1067C4.67243 15.1742 4.79743 15.2379 4.92493 15.2992V14.0867H4.54993Z" fill="#BC6F00"/>
<path d="M6.06128 14.6438V15.7238C6.18503 15.7588 6.31003 15.79 6.43628 15.8188V14.6438H6.06128Z" fill="#BC6F00"/>
<path d="M7.83008 14.8357V15.9869C7.88633 15.9882 7.94258 15.9907 8.00008 15.9907C8.06883 15.9907 8.13758 15.9869 8.20508 15.9857V14.8357H7.83008Z" fill="#BC6F00"/>
<path d="M9.59875 14.6348V15.8098C9.725 15.781 9.85 15.7485 9.97375 15.7135V14.6348H9.59875Z" fill="#BC6F00"/>
<path d="M11.1062 14.0708V15.2846C11.2337 15.2233 11.3587 15.1571 11.4812 15.0883V14.0708H11.1062Z" fill="#BC6F00"/>
<path d="M12.4351 13.1892V14.4517C12.5638 14.3505 12.6888 14.2467 12.8101 14.1367V13.1892H12.4351Z" fill="#BC6F00"/>
<path d="M13.8862 12.0364H13.5737V13.3301C13.6825 13.1951 13.7875 13.0564 13.8862 12.9139V12.0364Z" fill="#BC6F00"/>
<path d="M14.6987 10.6521H14.4487V11.9571C14.54 11.7683 14.6237 11.5746 14.6987 11.3783V10.6521Z" fill="#BC6F00"/>
<path d="M8.00008 15.3471C11.96 15.3471 15.1701 12.137 15.1701 8.17708C15.1701 4.2172 11.96 1.00708 8.00008 1.00708C4.0402 1.00708 0.830078 4.2172 0.830078 8.17708C0.830078 12.137 4.0402 15.3471 8.00008 15.3471Z" fill="#FFF176"/>
<path d="M8.00012 14.7085C11.6072 14.7085 14.5314 11.7844 14.5314 8.17725C14.5314 4.57014 11.6072 1.646 8.00012 1.646C4.39301 1.646 1.46887 4.57014 1.46887 8.17725C1.46887 11.7844 4.39301 14.7085 8.00012 14.7085Z" fill="#F2BC1A"/>
<path d="M1.45642 8.42729C1.41017 7.56729 1.55892 6.69479 1.85892 5.87729C2.17142 5.06229 2.65017 4.30854 3.25392 3.66854C4.46642 2.38604 6.22642 1.64229 8.00017 1.63354C9.77392 1.64354 11.5352 2.38604 12.7452 3.66979C13.3502 4.30854 13.8277 5.06354 14.1402 5.87729C14.4414 6.69604 14.5902 7.56729 14.5427 8.42729H14.5177C14.5152 7.57104 14.3452 6.71729 14.0177 5.92729C13.6914 5.13729 13.2077 4.41229 12.6064 3.80604C12.0039 3.19979 11.2827 2.71229 10.4939 2.38354C9.70642 2.05354 8.85267 1.88354 7.99892 1.88354C7.14517 1.88354 6.29142 2.05354 5.50392 2.38354C4.71517 2.71229 3.99392 3.19979 3.39142 3.80604C2.78892 4.41229 2.30642 5.13729 1.98017 5.92729C1.65267 6.71729 1.48267 7.57104 1.48017 8.42729H1.45642Z" fill="#E08F00"/>
<path d="M8.0002 1.00806C4.0402 1.00806 0.8302 4.21806 0.8302 8.17806C0.8302 12.1381 4.0402 15.3481 8.0002 15.3481C11.9602 15.3481 15.1702 12.1381 15.1702 8.17806C15.1702 4.21806 11.9602 1.00806 8.0002 1.00806ZM8.0002 14.7093C4.3927 14.7093 1.46895 11.7856 1.46895 8.17806C1.46895 4.56931 4.3927 1.64556 8.0002 1.64556C11.6077 1.64556 14.5314 4.56931 14.5314 8.17681C14.5314 11.7843 11.6077 14.7093 8.0002 14.7093Z" fill="#FFF176"/>
<path d="M4.749 3.16895L4.90775 3.6602L5.42525 3.4627V3.6602L5.0065 3.96395L5.1665 4.25645V4.4552L4.749 4.15145L4.33025 4.4552V4.25645L4.49025 3.96395L4.07275 3.6602V3.4627L4.589 3.6602L4.749 3.16895Z" fill="#D38200"/>
<path d="M2.75157 5.98853L2.91157 6.47978L3.42782 6.28228V6.47978L3.01032 6.78353L3.17032 7.07728V7.27478L2.75157 6.97103L2.33407 7.27478V7.07728L2.49407 6.78353L2.07532 6.47978V6.28228L2.59282 6.47978L2.75157 5.98853Z" fill="#D38200"/>
<path d="M2.69273 9.46533L2.85273 9.95658L3.36898 9.75908V9.95658L2.95148 10.2603L3.11148 10.5541V10.7516L2.69273 10.4478L2.27523 10.7516V10.5541L2.43523 10.2603L2.01648 9.95658V9.75908L2.53398 9.95658L2.69273 9.46533Z" fill="#D38200"/>
<path d="M4.82518 12.2249L4.98518 12.7161L5.50143 12.5186V12.7161L5.08393 13.0199L5.24393 13.3124V13.5111L4.82518 13.2074L4.40768 13.5111V13.3124L4.56768 13.0199L4.14893 12.7161V12.5186L4.66643 12.7161L4.82518 12.2249Z" fill="#D38200"/>
<path d="M11.2516 3.16895L11.0928 3.6602L10.5753 3.4627V3.6602L10.9941 3.96395L10.8341 4.25645V4.4552L11.2516 4.15145L11.6703 4.4552V4.25645L11.5103 3.96395L11.9278 3.6602V3.4627L11.4116 3.6602L11.2516 3.16895Z" fill="#D38200"/>
<path d="M13.249 5.98853L13.089 6.47978L12.5728 6.28228V6.47978L12.9903 6.78353L12.8303 7.07728V7.27478L13.249 6.97103L13.6665 7.27478V7.07728L13.5065 6.78353L13.9253 6.47978V6.28228L13.4078 6.47978L13.249 5.98853Z" fill="#D38200"/>
<path d="M13.3078 9.46533L13.1478 9.95658L12.6316 9.75908V9.95658L13.0491 10.2603L12.8891 10.5541V10.7516L13.3078 10.4478L13.7253 10.7516V10.5541L13.5653 10.2603L13.9841 9.95658V9.75908L13.4666 9.95658L13.3078 9.46533Z" fill="#D38200"/>
<path d="M11.1752 12.2249L11.0152 12.7161L10.4989 12.5186V12.7161L10.9164 13.0199L10.7564 13.3124V13.5111L11.1752 13.2074L11.5927 13.5111V13.3124L11.4327 13.0199L11.8514 12.7161V12.5186L11.3339 12.7161L11.1752 12.2249Z" fill="#D38200"/>
<path d="M11.1752 12.0264L11.3339 12.5176H11.8514L11.4327 12.8214L11.5927 13.3126L11.1752 13.0089L10.7564 13.3126L10.9164 12.8214L10.4989 12.5176H11.0152L11.1752 12.0264Z" fill="#FFF176"/>
<path d="M13.3076 9.26782L13.4663 9.75907H13.9838L13.5651 10.0628L13.7251 10.5541L13.3076 10.2503L12.8888 10.5541L13.0488 10.0628L12.6313 9.75907H13.1476L13.3076 9.26782Z" fill="#FFF176"/>
<path d="M13.249 5.79126L13.4078 6.28251H13.9253L13.5065 6.58626L13.6665 7.07751L13.249 6.77376L12.8303 7.07751L12.9903 6.58626L12.5728 6.28251H13.089L13.249 5.79126Z" fill="#FFF176"/>
<path d="M11.2513 2.97046L11.4113 3.46171H11.9276L11.5101 3.76546L11.6701 4.25671L11.2513 3.95296L10.8338 4.25671L10.9938 3.76546L10.5751 3.46171H11.0926L11.2513 2.97046Z" fill="#FFF176"/>
<path d="M8.00645 13.3125L8.16645 13.8038L8.6827 13.6062V13.8038L8.2652 14.1075L8.4252 14.4012V14.5988L8.00645 14.295L7.58895 14.5988V14.4012L7.74895 14.1075L7.3302 13.8038V13.6062L7.8477 13.8038L8.00645 13.3125Z" fill="#D38200"/>
<path d="M8.00645 13.0493L8.16645 13.5406H8.6827L8.2652 13.8443L8.4252 14.3356L8.00645 14.0318L7.58895 14.3356L7.74895 13.8443L7.3302 13.5406H7.8477L8.00645 13.0493Z" fill="#FFF176"/>
<path d="M8.00645 2.11108L8.16645 2.60233L8.6827 2.40483V2.60233L8.2652 2.90608L8.4252 3.19983V3.39733L8.00645 3.09358L7.58895 3.39733V3.19983L7.74895 2.90608L7.3302 2.60233V2.40483L7.8477 2.60233L8.00645 2.11108Z" fill="#D38200"/>
<path d="M8.00633 1.91382L8.16633 2.40507H8.68258L8.26508 2.70882L8.42508 3.20007L8.00633 2.89632L7.58883 3.20007L7.74883 2.70882L7.33008 2.40507H7.84758L8.00633 1.91382Z" fill="#FFF176"/>
<path d="M4.82518 12.0264L4.66643 12.5176H4.14893L4.56768 12.8214L4.40768 13.3126L4.82518 13.0089L5.24393 13.3126L5.08393 12.8214L5.50143 12.5176H4.98518L4.82518 12.0264Z" fill="#FFF176"/>
<path d="M2.69273 9.26782L2.53398 9.75907H2.01648L2.43523 10.0628L2.27523 10.5541L2.69273 10.2503L3.11148 10.5541L2.95148 10.0628L3.36898 9.75907H2.85273L2.69273 9.26782Z" fill="#FFF176"/>
<path d="M2.75157 5.79126L2.59282 6.28251H2.07532L2.49407 6.58626L2.33407 7.07751L2.75157 6.77376L3.17032 7.07751L3.01032 6.58626L3.42782 6.28251H2.91157L2.75157 5.79126Z" fill="#FFF176"/>
<path d="M4.749 2.97046L4.589 3.46171H4.07275L4.49025 3.76546L4.33025 4.25671L4.749 3.95296L5.1665 4.25671L5.0065 3.76546L5.42525 3.46171H4.90775L4.749 2.97046Z" fill="#FFF176"/>
<path d="M11.9028 6.52408C11.9028 6.48033 4.10528 6.52408 4.10528 6.52408L4.03528 6.73408V7.09283C4.03528 7.15783 4.08778 7.21033 4.15278 7.21033H8.02653H11.8478C11.9128 7.21033 11.9653 7.15783 11.9653 7.09283V6.74408L11.9028 6.52408Z" fill="#D38200"/>
<path d="M11.9138 11.1875H4.13755L3.61755 11.4487L3.6238 11.785C3.62505 11.8212 3.65505 11.8512 3.69255 11.8512H12.3088C12.3451 11.8512 12.3763 11.8225 12.3776 11.785L12.3838 11.455L11.9138 11.1875Z" fill="#D38200"/>
<path d="M5.39143 10.1649H4.94393C4.87018 10.1649 4.81018 9.93243 4.81018 9.85868L5.52393 9.83618C5.52393 9.90993 5.46393 10.1649 5.39143 10.1649Z" fill="#D38200"/>
<path d="M5.54422 7.75096H4.79047C4.73422 7.75096 4.68547 7.71346 4.66922 7.65971L4.61047 7.16846H5.71422L5.66422 7.65971C5.64922 7.71346 5.60047 7.75096 5.54422 7.75096Z" fill="#D38200"/>
<path d="M4.79017 10.314H5.54392C5.60017 10.314 5.71142 10.349 5.72642 10.4027C5.72642 10.4027 5.72267 10.6365 5.72267 10.729C5.72267 10.8215 5.68517 10.889 5.60142 10.889H4.73267C4.64892 10.889 4.61142 10.814 4.61142 10.729C4.61142 10.644 4.60767 10.4052 4.60767 10.4052C4.62392 10.3515 4.73392 10.314 4.79017 10.314Z" fill="#D38200"/>
<path d="M11.2041 10.1649H10.7566C10.6828 10.1649 10.6228 9.93243 10.6228 9.85868L11.3366 9.83618C11.3366 9.90993 11.2778 10.1649 11.2041 10.1649Z" fill="#D38200"/>
<path d="M11.3562 7.75096H10.6025C10.5462 7.75096 10.4975 7.71346 10.4812 7.65971L10.4225 7.16846H11.5262L11.4762 7.65971C11.4612 7.71346 11.4125 7.75096 11.3562 7.75096Z" fill="#D38200"/>
<path d="M10.6028 10.314H11.3565C11.4128 10.314 11.524 10.349 11.539 10.4027C11.539 10.4027 11.5353 10.6365 11.5353 10.729C11.5353 10.8215 11.4978 10.889 11.414 10.889H10.5453C10.4615 10.889 10.424 10.814 10.424 10.729C10.424 10.644 10.4203 10.4052 10.4203 10.4052C10.4365 10.3515 10.5465 10.314 10.6028 10.314Z" fill="#D38200"/>
<path d="M9.26655 10.1652H8.81905C8.7453 10.1652 8.6853 9.93268 8.6853 9.85893L9.39905 9.83643C9.39905 9.91018 9.3403 10.1652 9.26655 10.1652Z" fill="#D38200"/>
<path d="M9.4191 7.7512H8.66535C8.6091 7.7512 8.56035 7.7137 8.5441 7.65995L8.48535 7.1687H9.5891L9.5391 7.65995C9.5241 7.7137 9.47535 7.7512 9.4191 7.7512Z" fill="#D38200"/>
<path d="M8.66529 10.314H9.41904C9.47529 10.314 9.58654 10.349 9.60154 10.4027C9.60154 10.4027 9.59779 10.6365 9.59779 10.729C9.59779 10.8215 9.56029 10.889 9.47654 10.889H8.60779C8.52404 10.889 8.48654 10.814 8.48654 10.729C8.48654 10.644 8.48279 10.4052 8.48279 10.4052C8.49904 10.3515 8.60904 10.314 8.66529 10.314Z" fill="#D38200"/>
<path d="M7.32905 10.1652H6.88155C6.8078 10.1652 6.7478 9.93268 6.7478 9.85893L7.46155 9.83643C7.46155 9.91018 7.4028 10.1652 7.32905 10.1652Z" fill="#D38200"/>
<path d="M7.48148 7.7512H6.72773C6.67148 7.7512 6.62273 7.7137 6.60648 7.65995L6.54773 7.1687H7.65148L7.60148 7.65995C7.58648 7.7137 7.53773 7.7512 7.48148 7.7512Z" fill="#D38200"/>
<path d="M6.72779 10.314H7.48154C7.53779 10.314 7.64904 10.349 7.66404 10.4027C7.66404 10.4027 7.66029 10.6365 7.66029 10.729C7.66029 10.8215 7.62279 10.889 7.53904 10.889H6.67029C6.58654 10.889 6.54904 10.814 6.54904 10.729C6.54904 10.644 6.54529 10.4052 6.54529 10.4052C6.56154 10.3515 6.67154 10.314 6.72779 10.314Z" fill="#D38200"/>
<path d="M11.959 6.18981C11.959 6.14606 11.9365 6.10481 11.9028 6.08481L8.00528 3.87231L4.10278 6.08231C4.06528 6.10481 4.04153 6.14606 4.04153 6.18981L4.03528 6.73606C4.03528 6.80481 4.09153 6.86106 4.16028 6.86106H11.839C11.9078 6.86106 11.964 6.80481 11.964 6.73606L11.959 6.18981Z" fill="#FFF176"/>
<path d="M10.9803 6.0411L8.00026 4.34985L5.02026 6.0411H10.9803Z" fill="#F2BC1A"/>
<path d="M9.88396 5.83416L8.00021 4.76416L6.11646 5.83416H9.88396Z" fill="#FFF176"/>
<path d="M11.6739 10.7517H4.32637C4.25387 10.7517 4.18512 10.783 4.13637 10.8367L3.63137 11.4005C3.59637 11.4392 3.62387 11.5005 3.67637 11.5005H12.3239C12.3751 11.5005 12.4026 11.4392 12.3689 11.4005L11.8626 10.8367C11.8151 10.783 11.7451 10.7517 11.6739 10.7517Z" fill="#FFF176"/>
<path d="M11.2041 9.93883H10.7566C10.6828 9.93883 10.6228 9.87883 10.6228 9.80508V7.80758C10.6228 7.73383 10.6828 7.67383 10.7566 7.67383H11.2041C11.2778 7.67383 11.3378 7.73383 11.3378 7.80758V9.80633C11.3378 9.88008 11.2778 9.93883 11.2041 9.93883Z" fill="#FFF176"/>
<path d="M11.3581 7.52446H10.6043C10.5481 7.52446 10.4993 7.48696 10.4831 7.43321L10.4256 7.23446C10.4018 7.15446 10.4631 7.07446 10.5468 7.07446H11.4156C11.4993 7.07446 11.5593 7.15446 11.5368 7.23446L11.4793 7.43321C11.4631 7.48696 11.4131 7.52446 11.3581 7.52446Z" fill="#FFF176"/>
<path d="M10.6028 10.0884H11.3566C11.4128 10.0884 11.4616 10.1259 11.4778 10.1796L11.5353 10.3784C11.5591 10.4584 11.4978 10.5384 11.4141 10.5384H10.5453C10.4616 10.5384 10.4016 10.4584 10.4241 10.3784L10.4816 10.1796C10.4978 10.1246 10.5478 10.0884 10.6028 10.0884Z" fill="#FFF176"/>
<path d="M5.39155 9.93858H4.94405C4.8703 9.93858 4.8103 9.87858 4.8103 9.80483V7.80733C4.8103 7.73358 4.8703 7.67358 4.94405 7.67358H5.39155C5.4653 7.67358 5.5253 7.73358 5.5253 7.80733V9.80608C5.52405 9.87983 5.46405 9.93858 5.39155 9.93858Z" fill="#FFF176"/>
<path d="M5.54399 7.52422H4.79024C4.73399 7.52422 4.68524 7.48672 4.66899 7.43297L4.61149 7.23422C4.58774 7.15422 4.64899 7.07422 4.73274 7.07422H5.60149C5.68524 7.07422 5.74524 7.15422 5.72274 7.23422L5.66524 7.43297C5.64899 7.48672 5.60024 7.52422 5.54399 7.52422Z" fill="#FFF176"/>
<path d="M4.79032 10.0881H5.54407C5.60032 10.0881 5.64907 10.1256 5.66532 10.1794L5.72282 10.3781C5.74657 10.4581 5.68533 10.5381 5.60158 10.5381H4.73282C4.64907 10.5381 4.58907 10.4581 4.61157 10.3781L4.66907 10.1794C4.68532 10.1244 4.73407 10.0881 4.79032 10.0881Z" fill="#FFF176"/>
<path d="M7.32905 9.93883H6.88155C6.8078 9.93883 6.7478 9.87883 6.7478 9.80508V7.80758C6.7478 7.73383 6.8078 7.67383 6.88155 7.67383H7.32905C7.4028 7.67383 7.4628 7.73383 7.4628 7.80758V9.80633C7.46155 9.88008 7.4028 9.93883 7.32905 9.93883Z" fill="#FFF176"/>
<path d="M7.48149 7.52446H6.72774C6.67149 7.52446 6.62274 7.48696 6.60649 7.43321L6.54899 7.23446C6.52524 7.15446 6.58649 7.07446 6.67024 7.07446H7.53899C7.62274 7.07446 7.68274 7.15446 7.66024 7.23446L7.60274 7.43321C7.58649 7.48696 7.53774 7.52446 7.48149 7.52446Z" fill="#FFF176"/>
<path d="M6.72782 10.0884H7.48157C7.53782 10.0884 7.58657 10.1259 7.60282 10.1796L7.66032 10.3784C7.68407 10.4584 7.62283 10.5384 7.53908 10.5384H6.67032C6.58657 10.5384 6.52657 10.4584 6.54907 10.3784L6.60657 10.1796C6.62282 10.1246 6.67157 10.0884 6.72782 10.0884Z" fill="#FFF176"/>
<path d="M9.26667 9.93883H8.81917C8.74542 9.93883 8.68542 9.87883 8.68542 9.80508V7.80758C8.68542 7.73383 8.74542 7.67383 8.81917 7.67383H9.26667C9.34042 7.67383 9.40042 7.73383 9.40042 7.80758V9.80633C9.39917 9.88008 9.34042 9.93883 9.26667 9.93883Z" fill="#FFF176"/>
<path d="M9.41911 7.52446H8.66536C8.60911 7.52446 8.56036 7.48696 8.54411 7.43321L8.48661 7.23446C8.46286 7.15446 8.52411 7.07446 8.60786 7.07446H9.47661C9.56036 7.07446 9.62036 7.15446 9.59786 7.23446L9.54036 7.43321C9.52411 7.48696 9.47536 7.52446 9.41911 7.52446Z" fill="#FFF176"/>
<path d="M8.66545 10.0884H9.4192C9.47545 10.0884 9.5242 10.1259 9.54045 10.1796L9.59795 10.3784C9.6217 10.4584 9.56045 10.5384 9.4767 10.5384H8.60795C8.5242 10.5384 8.4642 10.4584 8.4867 10.3784L8.5442 10.1796C8.56045 10.1246 8.61045 10.0884 8.66545 10.0884Z" fill="#FFF176"/>
</svg>
