<svg width="239" height="235" viewBox="0 0 239 235" fill="none" xmlns="http://www.w3.org/2000/svg">
<g filter="url(#filter0_di_22_86)">
<path d="M226 121C226 176.566 178.762 222 120 222C61.2381 222 14 176.566 14 121C14 65.4339 61.2381 20 120 20C178.762 20 226 65.4339 226 121Z" stroke="white" stroke-width="10" shape-rendering="crispEdges"/>
</g>
<g filter="url(#filter1_f_22_86)">
<ellipse cx="50.3189" cy="44.6678" rx="50.3189" ry="44.6678" transform="matrix(-0.543898 0.839152 0.839152 0.543898 110.46 51.0586)" fill="#E46289" fill-opacity="0.5"/>
</g>
<g filter="url(#filter2_f_22_86)">
<path d="M89.8244 172.362C112.991 185.038 163.433 190.933 178.07 155.381C191.393 123.024 192.388 102.42 169.222 89.7437C146.055 77.0672 115.538 94.1649 104.168 114.944C92.7984 135.722 66.6576 159.685 89.8244 172.362Z" fill="#4D20FF"/>
</g>
<g filter="url(#filter3_f_22_86)">
<ellipse cx="56.6729" cy="60.6559" rx="56.6729" ry="60.6559" transform="matrix(-0.543898 0.839152 0.839152 0.543898 98.6485 37)" fill="url(#paint0_linear_22_86)"/>
</g>
<g style="mix-blend-mode:lighten" filter="url(#filter4_f_22_86)">
<path d="M55.3796 149.556C66.5076 162.187 101.527 171.332 130.214 142.471C156.323 116.202 167.315 98.8587 156.187 86.2274C145.059 73.596 113.6 85.5403 94.7156 102.177C75.8317 118.813 44.2516 136.925 55.3796 149.556Z" fill="#4D20FF"/>
</g>
<defs>
<filter id="filter0_di_22_86" x="5" y="7" width="234" height="224" filterUnits="userSpaceOnUse" color-interpolation-filters="sRGB">
<feFlood flood-opacity="0" result="BackgroundImageFix"/>
<feColorMatrix in="SourceAlpha" type="matrix" values="0 0 0 0 0 0 0 0 0 0 0 0 0 0 0 0 0 0 127 0" result="hardAlpha"/>
<feOffset dx="4" dy="-4"/>
<feGaussianBlur stdDeviation="2"/>
<feComposite in2="hardAlpha" operator="out"/>
<feColorMatrix type="matrix" values="0 0 0 0 1 0 0 0 0 1 0 0 0 0 1 0 0 0 0.08 0"/>
<feBlend mode="normal" in2="BackgroundImageFix" result="effect1_dropShadow_22_86"/>
<feBlend mode="normal" in="SourceGraphic" in2="effect1_dropShadow_22_86" result="shape"/>
<feColorMatrix in="SourceAlpha" type="matrix" values="0 0 0 0 0 0 0 0 0 0 0 0 0 0 0 0 0 0 127 0" result="hardAlpha"/>
<feOffset dx="-4" dy="4"/>
<feGaussianBlur stdDeviation="2"/>
<feComposite in2="hardAlpha" operator="arithmetic" k2="-1" k3="1"/>
<feColorMatrix type="matrix" values="0 0 0 0 0.607843 0 0 0 0 0.34902 0 0 0 0 0.713726 0 0 0 1 0"/>
<feBlend mode="normal" in2="shape" result="effect2_innerShadow_22_86"/>
</filter>
<filter id="filter1_f_22_86" x="15.1926" y="9.88729" width="210.764" height="215.382" filterUnits="userSpaceOnUse" color-interpolation-filters="sRGB">
<feFlood flood-opacity="0" result="BackgroundImageFix"/>
<feBlend mode="normal" in="SourceGraphic" in2="BackgroundImageFix" result="shape"/>
<feGaussianBlur stdDeviation="29.4837" result="effect1_foregroundBlur_22_86"/>
</filter>
<filter id="filter2_f_22_86" x="33.5346" y="38.3882" width="200.967" height="190.827" filterUnits="userSpaceOnUse" color-interpolation-filters="sRGB">
<feFlood flood-opacity="0" result="BackgroundImageFix"/>
<feBlend mode="normal" in="SourceGraphic" in2="BackgroundImageFix" result="shape"/>
<feGaussianBlur stdDeviation="23.5061" result="effect1_foregroundBlur_22_86"/>
</filter>
<filter id="filter3_f_22_86" x="0.242146" y="0.695393" width="236.963" height="233.705" filterUnits="userSpaceOnUse" color-interpolation-filters="sRGB">
<feFlood flood-opacity="0" result="BackgroundImageFix"/>
<feBlend mode="normal" in="SourceGraphic" in2="BackgroundImageFix" result="shape"/>
<feGaussianBlur stdDeviation="29.4837" result="effect1_foregroundBlur_22_86"/>
</filter>
<filter id="filter4_f_22_86" x="6.05151" y="33.9415" width="201.465" height="174.653" filterUnits="userSpaceOnUse" color-interpolation-filters="sRGB">
<feFlood flood-opacity="0" result="BackgroundImageFix"/>
<feBlend mode="normal" in="SourceGraphic" in2="BackgroundImageFix" result="shape"/>
<feGaussianBlur stdDeviation="23.5061" result="effect1_foregroundBlur_22_86"/>
</filter>
<linearGradient id="paint0_linear_22_86" x1="56.6729" y1="0" x2="56.6729" y2="121.312" gradientUnits="userSpaceOnUse">
<stop offset="0.254754" stop-color="#FF5789"/>
<stop offset="1" stop-color="#FF5789" stop-opacity="0"/>
</linearGradient>
</defs>
</svg>
