<svg width="18" height="18" viewBox="0 0 18 18" fill="none" xmlns="http://www.w3.org/2000/svg">
<path d="M0.853394 9.13439C0.853394 10.2168 1.0666 11.2887 1.48084 12.2888C1.89508 13.2888 2.50224 14.1975 3.26765 14.9629C4.03306 15.7283 4.94174 16.3355 5.9418 16.7497C6.94186 17.164 8.01372 17.3772 9.09618 17.3772C10.1786 17.3772 11.2505 17.164 12.2506 16.7497C13.2506 16.3355 14.1593 15.7283 14.9247 14.9629C15.6901 14.1975 16.2973 13.2888 16.7115 12.2888C17.1258 11.2887 17.339 10.2168 17.339 9.13439C17.339 8.05193 17.1258 6.98007 16.7115 5.98001C16.2973 4.97995 15.6901 4.07127 14.9247 3.30586C14.1593 2.54044 13.2506 1.93329 12.2506 1.51905C11.2505 1.10481 10.1786 0.891602 9.09618 0.891602C8.01372 0.891602 6.94186 1.10481 5.9418 1.51905C4.94174 1.93329 4.03306 2.54044 3.26765 3.30586C2.50224 4.07127 1.89508 4.97995 1.48084 5.98001C1.0666 6.98007 0.853394 8.05193 0.853394 9.13439Z" stroke="white" stroke-width="1.22115" stroke-linecap="round" stroke-linejoin="round"/>
<path d="M11.6605 6.38691C11.4946 6.09911 11.2536 5.86184 10.9632 5.70051C10.6728 5.53918 10.344 5.45986 10.012 5.47104H8.18024C7.69444 5.47104 7.22853 5.66403 6.88501 6.00754C6.5415 6.35106 6.34851 6.81697 6.34851 7.30277C6.34851 7.78858 6.5415 8.25448 6.88501 8.598C7.22853 8.94152 7.69444 9.1345 8.18024 9.1345H10.012C10.4978 9.1345 10.9637 9.32749 11.3072 9.671C11.6507 10.0145 11.8437 10.4804 11.8437 10.9662C11.8437 11.452 11.6507 11.9179 11.3072 12.2615C10.9637 12.605 10.4978 12.798 10.012 12.798H8.18024C7.84823 12.8091 7.51943 12.7298 7.22904 12.5685C6.93865 12.4072 6.69759 12.1699 6.53168 11.8821M9.09611 4.55518V13.7138" stroke="white" stroke-width="1.22115" stroke-linecap="round" stroke-linejoin="round"/>
</svg>
