<svg width="12" height="12" viewBox="0 0 12 12" fill="none" xmlns="http://www.w3.org/2000/svg">
<path d="M3.33375 3.81837C3.28032 4.38837 3.24282 5.39712 3.57938 5.82649C3.57938 5.82649 3.42094 4.71837 4.84125 3.32805C5.41313 2.76837 5.54532 2.00712 5.34563 1.43618C5.23219 1.11274 5.025 0.845555 4.845 0.658992C4.74 0.549305 4.82063 0.368367 4.97344 0.37493C5.89782 0.41618 7.39594 0.673054 8.0325 2.27055C8.31188 2.9718 8.3325 3.69649 8.19938 4.43337C8.115 4.90399 7.815 5.95024 8.49938 6.07868C8.98782 6.17055 9.22407 5.78243 9.33 5.50305C9.37407 5.3868 9.52688 5.35774 9.60938 5.45055C10.4344 6.38899 10.5047 7.4943 10.3341 8.44587C10.0041 10.2852 8.14125 11.624 6.29063 11.624C3.97875 11.624 2.13844 10.3012 1.66125 7.9068C1.46907 6.94024 1.56657 5.02774 3.05719 3.67774C3.16782 3.57649 3.34875 3.66649 3.33375 3.81837Z" fill="url(#paint0_radial_59_142)"/>
<path d="M7.13532 7.25798C6.28313 6.16111 6.66469 4.90955 6.87375 4.4108C6.90188 4.34517 6.82688 4.2833 6.76782 4.32361C6.40125 4.57298 5.65032 5.15986 5.30063 5.9858C4.82719 7.10236 4.86094 7.64892 5.14125 8.31642C5.31 8.71861 5.11407 8.80392 5.01563 8.81892C4.92 8.83392 4.83188 8.77017 4.76157 8.70361C4.56 8.51142 4.41469 8.26111 4.34532 7.99111C4.33032 7.93298 4.25438 7.91705 4.21969 7.96486C3.95719 8.32767 3.82125 8.90986 3.81469 9.32142C3.79407 10.5936 4.845 11.6249 6.11625 11.6249C7.71844 11.6249 8.88563 9.85298 7.965 8.37173C7.69782 7.94048 7.44657 7.6583 7.13532 7.25798Z" fill="url(#paint1_radial_59_142)"/>
<defs>
<radialGradient id="paint0_radial_59_142" cx="0" cy="0" r="1" gradientUnits="userSpaceOnUse" gradientTransform="translate(5.83276 11.6531) rotate(-179.751) scale(6.61759 10.8581)">
<stop offset="0.3144" stop-color="#FF9800"/>
<stop offset="0.6616" stop-color="#FF6D00"/>
<stop offset="0.9715" stop-color="#F44336"/>
</radialGradient>
<radialGradient id="paint1_radial_59_142" cx="0" cy="0" r="1" gradientUnits="userSpaceOnUse" gradientTransform="translate(6.20436 5.06788) rotate(90.5787) scale(6.92403 5.21085)">
<stop offset="0.2141" stop-color="#FFF176"/>
<stop offset="0.3275" stop-color="#FFF27D"/>
<stop offset="0.4868" stop-color="#FFF48F"/>
<stop offset="0.6722" stop-color="#FFF7AD"/>
<stop offset="0.7931" stop-color="#FFF9C4"/>
<stop offset="0.8221" stop-color="#FFF8BD" stop-opacity="0.804"/>
<stop offset="0.8627" stop-color="#FFF6AB" stop-opacity="0.529"/>
<stop offset="0.9101" stop-color="#FFF38D" stop-opacity="0.2088"/>
<stop offset="0.9409" stop-color="#FFF176" stop-opacity="0"/>
</radialGradient>
</defs>
</svg>
