<svg width="23" height="25" viewBox="0 0 23 25" fill="none" xmlns="http://www.w3.org/2000/svg">
<g clip-path="url(#clip0_145_25)">
<path d="M14.8798 22.2937V14.1526C14.8798 13.8827 14.7726 13.6239 14.5818 13.4331C14.3909 13.2422 14.1321 13.135 13.8622 13.135H9.79168C9.52178 13.135 9.26295 13.2422 9.0721 13.4331C8.88126 13.6239 8.77405 13.8827 8.77405 14.1526V22.2937" stroke="#555555" stroke-width="2.44231" stroke-linecap="round" stroke-linejoin="round"/>
<path d="M2.66827 11.0995C2.6682 10.8034 2.73272 10.5109 2.85734 10.2423C2.98195 9.97379 3.16365 9.73565 3.38977 9.54454L10.5132 3.43979C10.8805 3.12932 11.346 2.95898 11.8269 2.95898C12.3079 2.95898 12.7733 3.12932 13.1407 3.43979L20.2641 9.54454C20.4902 9.73565 20.6719 9.97379 20.7965 10.2423C20.9211 10.5109 20.9857 10.8034 20.9856 11.0995V20.2581C20.9856 20.7979 20.7712 21.3156 20.3895 21.6973C20.0078 22.079 19.4901 22.2934 18.9503 22.2934H4.70353C4.16375 22.2934 3.64607 22.079 3.26439 21.6973C2.8827 21.3156 2.66827 20.7979 2.66827 20.2581V11.0995Z" stroke="#555555" stroke-width="2.44231" stroke-linecap="round" stroke-linejoin="round"/>
</g>
<defs>
<clipPath id="clip0_145_25">
<rect width="21.9808" height="23.2019" fill="white" transform="translate(0.836548 0.92334)"/>
</clipPath>
</defs>
</svg>
