<svg width="30" height="30" viewBox="0 0 30 30" fill="none" xmlns="http://www.w3.org/2000/svg">
<path d="M15 29.9852C22.9198 29.9852 29.34 23.5649 29.34 15.6452C29.34 7.72541 22.9198 1.30518 15 1.30518C7.08027 1.30518 0.660034 7.72541 0.660034 15.6452C0.660034 23.5649 7.08027 29.9852 15 29.9852Z" fill="#D68F30"/>
<path d="M1.63501 19.3701V20.8351C1.78501 21.2226 1.95251 21.6051 2.13501 21.9751V19.3701H1.63501Z" fill="#BC6F00"/>
<path d="M3.27002 22.1274V23.8874C3.47002 24.1699 3.67752 24.4474 3.89502 24.7149V22.1274H3.27002Z" fill="#BC6F00"/>
<path d="M5.43506 24.4277V26.3252C5.67756 26.5427 5.92756 26.7502 6.18506 26.9502V24.4277H5.43506Z" fill="#BC6F00"/>
<path d="M8.09998 26.1753V28.2153C8.34498 28.3503 8.59498 28.4778 8.84998 28.6003V26.1753H8.09998Z" fill="#BC6F00"/>
<path d="M11.1226 27.2876V29.4476C11.3701 29.5176 11.6201 29.5801 11.8726 29.6376V27.2876H11.1226Z" fill="#BC6F00"/>
<path d="M14.66 27.6729V29.9754C14.7725 29.9779 14.885 29.9829 15 29.9829C15.1375 29.9829 15.275 29.9754 15.41 29.9729V27.6729H14.66Z" fill="#BC6F00"/>
<path d="M18.1975 27.27V29.62C18.45 29.5625 18.7 29.4975 18.9475 29.4275V27.27H18.1975Z" fill="#BC6F00"/>
<path d="M21.2125 26.1426V28.5701C21.4675 28.4476 21.7175 28.3151 21.9625 28.1776V26.1426H21.2125Z" fill="#BC6F00"/>
<path d="M23.87 24.3804V26.9054C24.1275 26.7029 24.3775 26.4954 24.62 26.2754V24.3804H23.87Z" fill="#BC6F00"/>
<path d="M26.7725 22.0728H26.1475V24.6603C26.365 24.3903 26.575 24.1128 26.7725 23.8278V22.0728Z" fill="#BC6F00"/>
<path d="M28.3975 19.3052H27.8975V21.9152C28.08 21.5377 28.2475 21.1502 28.3975 20.7577V19.3052Z" fill="#BC6F00"/>
<path d="M15 28.6951C22.9198 28.6951 29.34 22.2749 29.34 14.3551C29.34 6.43537 22.9198 0.0151367 15 0.0151367C7.08027 0.0151367 0.660034 6.43537 0.660034 14.3551C0.660034 22.2749 7.08027 28.6951 15 28.6951Z" fill="#FFF176"/>
<path d="M15 27.4175C22.2142 27.4175 28.0625 21.5692 28.0625 14.355C28.0625 7.14076 22.2142 1.29248 15 1.29248C7.78578 1.29248 1.9375 7.14076 1.9375 14.355C1.9375 21.5692 7.78578 27.4175 15 27.4175Z" fill="#F2BC1A"/>
<path d="M1.91248 14.8551C1.81998 13.1351 2.11748 11.3901 2.71748 9.75508C3.34248 8.12508 4.29998 6.61758 5.50748 5.33758C7.93248 2.77258 11.4525 1.28508 15 1.26758C18.5475 1.28758 22.07 2.77258 24.49 5.34008C25.7 6.61758 26.655 8.12758 27.28 9.75508C27.8825 11.3926 28.18 13.1351 28.085 14.8551H28.035C28.03 13.1426 27.69 11.4351 27.035 9.85508C26.3825 8.27508 25.415 6.82508 24.2125 5.61258C23.0075 4.40008 21.565 3.42508 19.9875 2.76758C18.4125 2.10758 16.705 1.76758 14.9975 1.76758C13.29 1.76758 11.5825 2.10758 10.0075 2.76758C8.42998 3.42508 6.98748 4.40008 5.78248 5.61258C4.57748 6.82508 3.61248 8.27508 2.95998 9.85508C2.30498 11.4351 1.96498 13.1426 1.95998 14.8551H1.91248Z" fill="#E08F00"/>
<path d="M15 0.0175781C7.08003 0.0175781 0.660034 6.43758 0.660034 14.3576C0.660034 22.2776 7.08003 28.6976 15 28.6976C22.92 28.6976 29.34 22.2776 29.34 14.3576C29.34 6.43758 22.92 0.0175781 15 0.0175781ZM15 27.4201C7.78503 27.4201 1.93753 21.5726 1.93753 14.3576C1.93753 7.14008 7.78503 1.29258 15 1.29258C22.215 1.29258 28.0625 7.14008 28.0625 14.3551C28.0625 21.5701 22.215 27.4201 15 27.4201Z" fill="#FFF176"/>
<path d="M8.49764 4.3374L8.81514 5.3199L9.85014 4.9249V5.3199L9.01264 5.9274L9.33264 6.5124V6.9099L8.49764 6.3024L7.66014 6.9099V6.5124L7.98014 5.9274L7.14514 5.3199V4.9249L8.17764 5.3199L8.49764 4.3374Z" fill="#D38200"/>
<path d="M4.50265 9.97754L4.82265 10.96L5.85515 10.565V10.96L5.02015 11.5675L5.34015 12.155V12.55L4.50265 11.9425L3.66765 12.55V12.155L3.98765 11.5675L3.15015 10.96V10.565L4.18515 10.96L4.50265 9.97754Z" fill="#D38200"/>
<path d="M4.38509 16.9297L4.70509 17.9122L5.73759 17.5172V17.9122L4.90259 18.5197L5.22259 19.1072V19.5022L4.38509 18.8947L3.55009 19.5022V19.1072L3.87009 18.5197L3.03259 17.9122V17.5172L4.06759 17.9122L4.38509 16.9297Z" fill="#D38200"/>
<path d="M8.65011 22.4497L8.97011 23.4322L10.0026 23.0372V23.4322L9.16761 24.0397L9.48761 24.6247V25.0222L8.65011 24.4147L7.81511 25.0222V24.6247L8.13511 24.0397L7.29761 23.4322V23.0372L8.33261 23.4322L8.65011 22.4497Z" fill="#D38200"/>
<path d="M21.5026 4.3374L21.1851 5.3199L20.1501 4.9249V5.3199L20.9876 5.9274L20.6676 6.5124V6.9099L21.5026 6.3024L22.3401 6.9099V6.5124L22.0201 5.9274L22.8551 5.3199V4.9249L21.8226 5.3199L21.5026 4.3374Z" fill="#D38200"/>
<path d="M25.4976 9.97754L25.1776 10.96L24.1451 10.565V10.96L24.9801 11.5675L24.6601 12.155V12.55L25.4976 11.9425L26.3326 12.55V12.155L26.0126 11.5675L26.8501 10.96V10.565L25.8151 10.96L25.4976 9.97754Z" fill="#D38200"/>
<path d="M25.6151 16.9297L25.2951 17.9122L24.2626 17.5172V17.9122L25.0976 18.5197L24.7776 19.1072V19.5022L25.6151 18.8947L26.4501 19.5022V19.1072L26.1301 18.5197L26.9676 17.9122V17.5172L25.9326 17.9122L25.6151 16.9297Z" fill="#D38200"/>
<path d="M21.3501 22.4497L21.0301 23.4322L19.9976 23.0372V23.4322L20.8326 24.0397L20.5126 24.6247V25.0222L21.3501 24.4147L22.1851 25.0222V24.6247L21.8651 24.0397L22.7026 23.4322V23.0372L21.6676 23.4322L21.3501 22.4497Z" fill="#D38200"/>
<path d="M21.3501 22.0522L21.6676 23.0347H22.7026L21.8651 23.6422L22.1851 24.6247L21.3501 24.0172L20.5126 24.6247L20.8326 23.6422L19.9976 23.0347H21.0301L21.3501 22.0522Z" fill="#FFF176"/>
<path d="M25.6151 16.5352L25.9326 17.5177H26.9676L26.1301 18.1252L26.4501 19.1077L25.6151 18.5002L24.7776 19.1077L25.0976 18.1252L24.2626 17.5177H25.2951L25.6151 16.5352Z" fill="#FFF176"/>
<path d="M25.4975 9.58252L25.815 10.565H26.85L26.0125 11.1725L26.3325 12.155L25.4975 11.5475L24.66 12.155L24.98 11.1725L24.145 10.565H25.1775L25.4975 9.58252Z" fill="#FFF176"/>
<path d="M21.5025 3.93994L21.8225 4.92244H22.855L22.02 5.52994L22.34 6.51244L21.5025 5.90494L20.6675 6.51244L20.9875 5.52994L20.15 4.92244H21.185L21.5025 3.93994Z" fill="#FFF176"/>
<path d="M15.0125 24.625L15.3325 25.6075L16.365 25.2125V25.6075L15.53 26.215L15.85 26.8025V27.1975L15.0125 26.59L14.1775 27.1975V26.8025L14.4975 26.215L13.66 25.6075V25.2125L14.695 25.6075L15.0125 24.625Z" fill="#D38200"/>
<path d="M15.0125 24.1001L15.3325 25.0826H16.365L15.53 25.6901L15.85 26.6726L15.0125 26.0651L14.1775 26.6726L14.4975 25.6901L13.66 25.0826H14.695L15.0125 24.1001Z" fill="#FFF176"/>
<path d="M15.0125 2.22266L15.3325 3.20516L16.365 2.81016V3.20516L15.53 3.81266L15.85 4.40016V4.79516L15.0125 4.18766L14.1775 4.79516V4.40016L14.4975 3.81266L13.66 3.20516V2.81016L14.695 3.20516L15.0125 2.22266Z" fill="#D38200"/>
<path d="M15.0125 1.82764L15.3325 2.81014H16.365L15.53 3.41764L15.85 4.40014L15.0125 3.79264L14.1775 4.40014L14.4975 3.41764L13.66 2.81014H14.695L15.0125 1.82764Z" fill="#FFF176"/>
<path d="M8.65011 22.0522L8.33261 23.0347H7.29761L8.13511 23.6422L7.81511 24.6247L8.65011 24.0172L9.48761 24.6247L9.16761 23.6422L10.0026 23.0347H8.97011L8.65011 22.0522Z" fill="#FFF176"/>
<path d="M4.38509 16.5352L4.06759 17.5177H3.03259L3.87009 18.1252L3.55009 19.1077L4.38509 18.5002L5.22259 19.1077L4.90259 18.1252L5.73759 17.5177H4.70509L4.38509 16.5352Z" fill="#FFF176"/>
<path d="M4.50265 9.58252L4.18515 10.565H3.15015L3.98765 11.1725L3.66765 12.155L4.50265 11.5475L5.34015 12.155L5.02015 11.1725L5.85515 10.565H4.82265L4.50265 9.58252Z" fill="#FFF176"/>
<path d="M8.49764 3.93994L8.17764 4.92244H7.14514L7.98014 5.52994L7.66014 6.51244L8.49764 5.90494L9.33264 6.51244L9.01264 5.52994L9.85014 4.92244H8.81514L8.49764 3.93994Z" fill="#FFF176"/>
<path d="M22.8051 11.0501C22.8051 10.9626 7.21007 11.0501 7.21007 11.0501L7.07007 11.4701V12.1876C7.07007 12.3176 7.17507 12.4226 7.30507 12.4226H15.0526H22.6951C22.8251 12.4226 22.9301 12.3176 22.9301 12.1876V11.4901L22.8051 11.0501Z" fill="#D38200"/>
<path d="M22.8275 20.375H7.27498L6.23499 20.8975L6.24749 21.57C6.24999 21.6425 6.30999 21.7025 6.38499 21.7025H23.6175C23.69 21.7025 23.7525 21.645 23.755 21.57L23.7675 20.91L22.8275 20.375Z" fill="#D38200"/>
<path d="M9.78262 18.3299H8.88762C8.74012 18.3299 8.62012 17.8649 8.62012 17.7174L10.0476 17.6724C10.0476 17.8199 9.92762 18.3299 9.78262 18.3299Z" fill="#D38200"/>
<path d="M10.0876 13.5024H8.58009C8.46759 13.5024 8.37009 13.4274 8.33759 13.3199L8.22009 12.3374H10.4276L10.3276 13.3199C10.2976 13.4274 10.2001 13.5024 10.0876 13.5024Z" fill="#D38200"/>
<path d="M8.58009 18.6274H10.0876C10.2001 18.6274 10.4226 18.6974 10.4526 18.8049C10.4526 18.8049 10.4451 19.2724 10.4451 19.4574C10.4451 19.6424 10.3701 19.7774 10.2026 19.7774H8.46509C8.29759 19.7774 8.22259 19.6274 8.22259 19.4574C8.22259 19.2874 8.21509 18.8099 8.21509 18.8099C8.24759 18.7024 8.46759 18.6274 8.58009 18.6274Z" fill="#D38200"/>
<path d="M21.4076 18.3299H20.5126C20.3651 18.3299 20.2451 17.8649 20.2451 17.7174L21.6726 17.6724C21.6726 17.8199 21.5551 18.3299 21.4076 18.3299Z" fill="#D38200"/>
<path d="M21.7126 13.5024H20.2051C20.0926 13.5024 19.9951 13.4274 19.9626 13.3199L19.8451 12.3374H22.0526L21.9526 13.3199C21.9226 13.4274 21.8251 13.5024 21.7126 13.5024Z" fill="#D38200"/>
<path d="M20.2051 18.6274H21.7126C21.8251 18.6274 22.0476 18.6974 22.0776 18.8049C22.0776 18.8049 22.0701 19.2724 22.0701 19.4574C22.0701 19.6424 21.9951 19.7774 21.8276 19.7774H20.0901C19.9226 19.7774 19.8476 19.6274 19.8476 19.4574C19.8476 19.2874 19.8401 18.8099 19.8401 18.8099C19.8726 18.7024 20.0926 18.6274 20.2051 18.6274Z" fill="#D38200"/>
<path d="M17.5326 18.3299H16.6376C16.4901 18.3299 16.3701 17.8649 16.3701 17.7174L17.7976 17.6724C17.7976 17.8199 17.6801 18.3299 17.5326 18.3299Z" fill="#D38200"/>
<path d="M17.8376 13.5024H16.3301C16.2176 13.5024 16.1201 13.4274 16.0876 13.3199L15.9701 12.3374H18.1776L18.0776 13.3199C18.0476 13.4274 17.9501 13.5024 17.8376 13.5024Z" fill="#D38200"/>
<path d="M16.3301 18.6274H17.8376C17.9501 18.6274 18.1726 18.6974 18.2026 18.8049C18.2026 18.8049 18.1951 19.2724 18.1951 19.4574C18.1951 19.6424 18.1201 19.7774 17.9526 19.7774H16.2151C16.0476 19.7774 15.9726 19.6274 15.9726 19.4574C15.9726 19.2874 15.9651 18.8099 15.9651 18.8099C15.9976 18.7024 16.2176 18.6274 16.3301 18.6274Z" fill="#D38200"/>
<path d="M13.6576 18.3299H12.7626C12.6151 18.3299 12.4951 17.8649 12.4951 17.7174L13.9226 17.6724C13.9226 17.8199 13.8051 18.3299 13.6576 18.3299Z" fill="#D38200"/>
<path d="M13.9626 13.5024H12.4551C12.3426 13.5024 12.2451 13.4274 12.2126 13.3199L12.0951 12.3374H14.3026L14.2026 13.3199C14.1726 13.4274 14.0751 13.5024 13.9626 13.5024Z" fill="#D38200"/>
<path d="M12.4551 18.6274H13.9626C14.0751 18.6274 14.2976 18.6974 14.3276 18.8049C14.3276 18.8049 14.3201 19.2724 14.3201 19.4574C14.3201 19.6424 14.2451 19.7774 14.0776 19.7774H12.3401C12.1726 19.7774 12.0976 19.6274 12.0976 19.4574C12.0976 19.2874 12.0901 18.8099 12.0901 18.8099C12.1226 18.7024 12.3426 18.6274 12.4551 18.6274Z" fill="#D38200"/>
<path d="M22.9176 10.3801C22.9176 10.2926 22.8726 10.2101 22.8051 10.1701L15.0101 5.74512L7.20507 10.1651C7.13007 10.2101 7.08257 10.2926 7.08257 10.3801L7.07007 11.4726C7.07007 11.6101 7.18257 11.7226 7.32007 11.7226H22.6776C22.8151 11.7226 22.9276 11.6101 22.9276 11.4726L22.9176 10.3801Z" fill="#FFF176"/>
<path d="M20.96 10.0827L15 6.7002L9.04004 10.0827H20.96Z" fill="#F2BC1A"/>
<path d="M18.7675 9.67027L15 7.53027L11.2325 9.67027H18.7675Z" fill="#FFF176"/>
<path d="M22.3475 19.5054H7.6525C7.5075 19.5054 7.37 19.5679 7.2725 19.6754L6.2625 20.8029C6.1925 20.8804 6.2475 21.0029 6.3525 21.0029H23.6475C23.75 21.0029 23.805 20.8804 23.7375 20.8029L22.725 19.6754C22.63 19.5679 22.49 19.5054 22.3475 19.5054Z" fill="#FFF176"/>
<path d="M21.4075 17.8772H20.5125C20.365 17.8772 20.245 17.7572 20.245 17.6097V13.6147C20.245 13.4672 20.365 13.3472 20.5125 13.3472H21.4075C21.555 13.3472 21.675 13.4672 21.675 13.6147V17.6122C21.675 17.7597 21.555 17.8772 21.4075 17.8772Z" fill="#FFF176"/>
<path d="M21.715 13.0499H20.2075C20.095 13.0499 19.9975 12.9749 19.965 12.8674L19.85 12.4699C19.8025 12.3099 19.925 12.1499 20.0925 12.1499H21.83C21.9975 12.1499 22.1175 12.3099 22.0725 12.4699L21.9575 12.8674C21.925 12.9749 21.825 13.0499 21.715 13.0499Z" fill="#FFF176"/>
<path d="M20.205 18.1772H21.7125C21.825 18.1772 21.9225 18.2522 21.955 18.3597L22.07 18.7572C22.1175 18.9172 21.995 19.0772 21.8275 19.0772H20.09C19.9225 19.0772 19.8025 18.9172 19.8475 18.7572L19.9625 18.3597C19.995 18.2497 20.095 18.1772 20.205 18.1772Z" fill="#FFF176"/>
<path d="M9.7825 17.8772H8.8875C8.74 17.8772 8.62 17.7572 8.62 17.6097V13.6147C8.62 13.4672 8.74 13.3472 8.8875 13.3472H9.7825C9.93 13.3472 10.05 13.4672 10.05 13.6147V17.6122C10.0475 17.7597 9.9275 17.8772 9.7825 17.8772Z" fill="#FFF176"/>
<path d="M10.0875 13.0499H8.57998C8.46748 13.0499 8.36998 12.9749 8.33748 12.8674L8.22248 12.4699C8.17498 12.3099 8.29748 12.1499 8.46498 12.1499H10.2025C10.37 12.1499 10.49 12.3099 10.445 12.4699L10.33 12.8674C10.2975 12.9749 10.2 13.0499 10.0875 13.0499Z" fill="#FFF176"/>
<path d="M8.58004 18.1772H10.0875C10.2 18.1772 10.2975 18.2522 10.33 18.3597L10.445 18.7572C10.4925 18.9172 10.37 19.0772 10.2025 19.0772H8.46504C8.29754 19.0772 8.17754 18.9172 8.22254 18.7572L8.33754 18.3597C8.37004 18.2497 8.46754 18.1772 8.58004 18.1772Z" fill="#FFF176"/>
<path d="M13.6575 17.8772H12.7625C12.615 17.8772 12.495 17.7572 12.495 17.6097V13.6147C12.495 13.4672 12.615 13.3472 12.7625 13.3472H13.6575C13.805 13.3472 13.925 13.4672 13.925 13.6147V17.6122C13.9225 17.7597 13.805 17.8772 13.6575 17.8772Z" fill="#FFF176"/>
<path d="M13.9625 13.0499H12.455C12.3425 13.0499 12.245 12.9749 12.2125 12.8674L12.0975 12.4699C12.05 12.3099 12.1725 12.1499 12.34 12.1499H14.0775C14.245 12.1499 14.365 12.3099 14.32 12.4699L14.205 12.8674C14.1725 12.9749 14.075 13.0499 13.9625 13.0499Z" fill="#FFF176"/>
<path d="M12.455 18.1772H13.9625C14.075 18.1772 14.1725 18.2522 14.205 18.3597L14.32 18.7572C14.3675 18.9172 14.245 19.0772 14.0775 19.0772H12.34C12.1725 19.0772 12.0525 18.9172 12.0975 18.7572L12.2125 18.3597C12.245 18.2497 12.3425 18.1772 12.455 18.1772Z" fill="#FFF176"/>
<path d="M17.5325 17.8772H16.6375C16.49 17.8772 16.37 17.7572 16.37 17.6097V13.6147C16.37 13.4672 16.49 13.3472 16.6375 13.3472H17.5325C17.68 13.3472 17.8 13.4672 17.8 13.6147V17.6122C17.7975 17.7597 17.68 17.8772 17.5325 17.8772Z" fill="#FFF176"/>
<path d="M17.8375 13.0499H16.33C16.2175 13.0499 16.12 12.9749 16.0875 12.8674L15.9725 12.4699C15.925 12.3099 16.0475 12.1499 16.215 12.1499H17.9525C18.12 12.1499 18.24 12.3099 18.195 12.4699L18.08 12.8674C18.0475 12.9749 17.95 13.0499 17.8375 13.0499Z" fill="#FFF176"/>
<path d="M16.33 18.1772H17.8375C17.95 18.1772 18.0475 18.2522 18.08 18.3597L18.195 18.7572C18.2425 18.9172 18.12 19.0772 17.9525 19.0772H16.215C16.0475 19.0772 15.9275 18.9172 15.9725 18.7572L16.0875 18.3597C16.12 18.2497 16.22 18.1772 16.33 18.1772Z" fill="#FFF176"/>
</svg>
