<svg width="16" height="16" viewBox="0 0 16 16" fill="none" xmlns="http://www.w3.org/2000/svg">
<path d="M4.49501 0.398634C4.43751 0.433634 4.47001 3.44988 4.50626 3.51113C4.55126 3.58738 5.14501 4.14113 5.67376 4.60238C6.08751 4.96238 6.45251 4.70988 6.52126 4.70988C6.67751 4.70988 9.30251 4.73863 9.38126 4.73863C9.41376 4.73863 9.87876 5.00988 10.27 4.67738C10.8263 4.20238 11.495 3.60613 11.5063 3.51863C11.5175 3.43363 11.5188 0.436134 11.4775 0.409884C11.4588 0.397384 10.985 0.389884 10.3238 0.382384C9.76126 0.376134 8.61501 0.664884 7.88376 0.662384C6.94626 0.659884 6.41001 0.367384 5.68001 0.373634C5.01126 0.378634 4.51626 0.384884 4.49501 0.398634Z" fill="#176BC6"/>
<path d="M5.67749 0.369961L5.67374 4.60246C5.67374 4.60246 5.87874 4.78496 6.08499 4.95371C6.27999 5.11371 6.47624 5.25996 6.49124 5.25871C6.62749 5.24871 9.46124 5.31871 9.51999 5.28996C9.55249 5.27371 9.76374 5.10746 9.96249 4.94371C10.1162 4.81621 10.2725 4.68121 10.2725 4.68121L10.3287 0.379961C10.3287 0.379961 9.97374 0.378711 9.50874 0.374961C9.50624 0.374961 8.35124 0.509961 7.91374 0.511211C7.38874 0.512461 6.90874 0.366211 6.44624 0.366211C5.91124 0.366211 5.67749 0.369961 5.67749 0.369961Z" fill="white"/>
<path d="M6.47751 5.26272C6.39876 5.20397 6.44501 0.36647 6.44501 0.36647C6.44501 0.36647 6.96251 0.36022 8.06126 0.36522C9.01876 0.36897 9.50876 0.37522 9.50876 0.37522C9.50876 0.37522 9.55376 5.20522 9.50501 5.28397C9.45626 5.36272 8.65501 5.76272 8.10751 5.77147C7.56001 5.78022 6.51626 5.29272 6.47751 5.26272Z" fill="#DB0D2A"/>
<path d="M8.03124 6.56744C8.29124 6.55244 9.56374 5.32244 9.53999 5.28244C9.52374 5.25494 8.76624 5.25119 8.00124 5.24744C7.23624 5.24369 6.46749 5.22744 6.46374 5.25494C6.45749 5.30869 7.71124 6.58619 8.03124 6.56744Z" fill="#FBC21F"/>
<path d="M7.99874 6.35254C7.91249 6.35254 7.85374 6.51504 7.80249 6.62504C7.75124 6.73504 6.45999 9.61629 6.44374 9.64254C6.42624 9.66754 3.52499 9.69379 3.38874 9.71129C3.25249 9.72879 3.15249 9.77879 3.15249 9.83879C3.15249 9.89879 3.13374 10.0213 3.20999 10.08C3.28624 10.14 5.63749 12.085 5.63749 12.1275C5.63749 12.17 4.86999 15.2463 4.87874 15.315C4.88749 15.3838 4.93124 15.4563 4.98249 15.4988C5.03374 15.5413 5.06874 15.54 5.15499 15.5213C5.31624 15.4863 7.85874 13.925 7.89374 13.9338C7.92749 13.9425 10.5412 15.4788 10.6087 15.4875C10.6775 15.4963 10.7537 15.4875 10.8037 15.4525C10.8537 15.4175 10.905 15.2838 10.8787 15.19C10.8537 15.0963 10.3262 12.385 10.3437 12.3338C10.3612 12.2825 12.6025 10.3475 12.645 10.2625C12.6875 10.1775 12.6062 9.97754 12.53 9.91754C12.4537 9.85754 9.57499 9.65254 9.51499 9.61879C9.45499 9.58504 8.26249 6.65129 8.24624 6.59129C8.22999 6.53129 8.09249 6.35254 7.99874 6.35254Z" fill="#FBC21F"/>
<path d="M6.80624 9.65862C6.80624 9.72362 7.61624 11.3374 7.66749 11.3374C7.71874 11.3374 8.02499 11.2099 8.02499 11.2099C8.02499 11.2099 8.03374 7.05987 8.00749 7.10237C7.98249 7.14487 6.80624 9.52237 6.80624 9.65862Z" fill="#FDEFAA"/>
<path d="M8.49375 11.3723C8.46125 11.3323 9.24375 10.0686 9.34625 10.0261C9.44875 9.98359 12.2013 10.1448 12.1925 10.2048C12.1838 10.2636 8.5275 11.4148 8.49375 11.3723Z" fill="#FDEFAA"/>
<path d="M5.96249 12.1737C5.92124 12.2099 5.31499 14.7562 5.34874 14.8149C5.38249 14.8749 7.59874 12.1987 7.58999 12.1474C7.58124 12.0962 7.59874 11.6187 7.59874 11.6187C7.59874 11.6187 6.02999 12.1137 5.96249 12.1737Z" fill="#FDEFAA"/>
<path d="M8.2525 11.2113C8.24375 11.185 8.17 10.8438 8.1525 10.7525C8.135 10.6663 8.075 10.5713 7.98875 10.5713C7.90625 10.5713 7.84375 10.66 7.81625 10.7788C7.7775 10.9425 7.7175 11.2113 7.7175 11.2113C7.7175 11.2113 7.3975 11.1838 7.325 11.1813C7.2125 11.1775 7.07875 11.185 7.0575 11.285C7.04375 11.3463 7.06375 11.4275 7.23 11.5313C7.36875 11.6175 7.5325 11.7125 7.5325 11.7125C7.5325 11.7125 7.48375 11.8938 7.44625 12.0575C7.425 12.1525 7.3725 12.33 7.46375 12.3775C7.55375 12.425 7.65875 12.3475 7.76125 12.2475C7.8275 12.1838 7.98125 12.0363 7.98125 12.0363C7.98125 12.0363 8.17375 12.1825 8.24625 12.2413C8.33375 12.3125 8.47125 12.3575 8.54 12.2975C8.61375 12.2325 8.5975 12.125 8.5575 12.0075C8.51375 11.8825 8.4275 11.6963 8.4275 11.6963C8.4275 11.6963 8.725 11.5088 8.78 11.47C8.83625 11.4313 8.90125 11.34 8.8625 11.2413C8.83625 11.1738 8.72375 11.15 8.62875 11.1675C8.53375 11.185 8.2525 11.2113 8.2525 11.2113Z" fill="#F6922C"/>
<path d="M9.21751 11.1325C9.26001 11.2838 9.41001 11.2538 9.67626 11.1863C9.94126 11.12 12.4513 10.3463 12.5363 10.3175C12.6288 10.2863 12.7713 10.1788 12.7288 10.0525C12.6863 9.92503 12.5538 9.89503 12.4025 9.93128C12.2513 9.96753 9.76001 10.8063 9.59626 10.8663C9.49001 10.9063 9.17501 10.9813 9.21751 11.1325Z" fill="#F6922C"/>
<path d="M8.00501 10.1388C8.16126 10.1213 8.15001 9.78883 8.17126 9.51633C8.19251 9.24383 8.23001 6.58008 8.23001 6.49008C8.23001 6.39258 8.17126 6.23633 8.03751 6.23633C7.90376 6.23633 7.83501 6.33883 7.82126 6.49258C7.80751 6.64758 7.82001 9.30133 7.83001 9.47383C7.84751 9.74883 7.85626 10.1563 8.00501 10.1388Z" fill="#F6922C"/>
<path d="M6.66 11.1026C6.69875 10.9513 6.3975 10.8426 6.145 10.7376C5.8925 10.6313 3.51625 9.78756 3.43 9.75881C3.3375 9.72881 3.18125 9.73006 3.13875 9.85631C3.09625 9.98381 3.1625 10.0851 3.305 10.1476C3.4475 10.2101 5.81125 11.0163 5.97875 11.0613C6.245 11.1313 6.62 11.2588 6.66 11.1026Z" fill="#F6922C"/>
<path d="M7.25875 12.6227C7.125 12.5402 6.92875 12.7527 6.74375 12.9552C6.55875 13.1577 4.98125 15.1402 4.925 15.2115C4.865 15.289 4.805 15.4577 4.91125 15.539C5.01625 15.6215 5.14375 15.5727 5.25 15.459C5.35625 15.3452 6.90125 13.3752 6.99875 13.2315C7.15375 13.0052 7.38625 12.7015 7.25875 12.6227Z" fill="#F6922C"/>
<path d="M8.73624 12.58C8.61874 12.6837 8.79624 12.8962 8.93624 13.1312C9.07624 13.3662 10.4562 15.3387 10.5087 15.4125C10.565 15.4925 10.7087 15.5987 10.8187 15.5212C10.9287 15.4437 10.9187 15.3087 10.8412 15.175C10.7637 15.0412 9.31999 13.0637 9.21124 12.9287C9.03749 12.715 8.84874 12.4812 8.73624 12.58Z" fill="#F6922C"/>
</svg>
