<svg width="24" height="24" viewBox="0 0 24 24" fill="none" xmlns="http://www.w3.org/2000/svg">
<path d="M12.7593 1.35563L15.2831 7.11188C15.4762 7.5525 15.8943 7.85437 16.3743 7.8975L22.5224 8.44875C23.2181 8.55 23.4956 9.40312 22.9912 9.89437L18.3599 13.785C17.9849 14.1 17.8143 14.595 17.9174 15.0731L19.2637 21.375C19.3818 22.0669 18.6562 22.5956 18.0337 22.2675L12.6674 19.125C12.2549 18.8831 11.7449 18.8831 11.3324 19.125L5.96619 22.2656C5.34557 22.5919 4.61807 22.065 4.73619 21.3731L6.08244 15.0712C6.18369 14.5931 6.01494 14.0981 5.63994 13.7831L1.00682 9.89625C0.504316 9.40687 0.781816 8.55188 1.47557 8.45062L7.62369 7.89937C8.10369 7.85625 8.52182 7.55437 8.71494 7.11375L11.2387 1.3575C11.5518 0.7275 12.4481 0.7275 12.7593 1.35563Z" fill="#FDD835"/>
<path d="M12.5756 7.45696L12.1481 3.21571C12.1312 2.97946 12.0825 2.57446 12.4612 2.57446C12.7612 2.57446 12.9243 3.19884 12.9243 3.19884L14.2068 6.60384C14.6906 7.89946 14.4918 8.34384 14.025 8.60634C13.4887 8.90634 12.6975 8.67196 12.5756 7.45696Z" fill="#FFFF8D"/>
<path d="M17.8649 13.4081L21.5437 10.5375C21.7256 10.3856 22.0537 10.1438 21.7912 9.86813C21.5831 9.65063 21.0206 9.96376 21.0206 9.96376L17.8012 11.2219C16.8412 11.5538 16.2037 12.045 16.1474 12.6638C16.0743 13.4888 16.8149 14.1244 17.8649 13.4081Z" fill="#F4B400"/>
</svg>
