<svg width="16" height="16" viewBox="0 0 16 16" fill="none" xmlns="http://www.w3.org/2000/svg">
<path d="M0.39502 4.18365V12.3424C0.39502 12.4812 0.507519 12.5949 0.647519 12.5949H15.1425C15.2813 12.5949 15.395 12.4824 15.395 12.3424V4.18365C15.395 4.0449 15.2825 3.93115 15.1425 3.93115H0.647519C0.507519 3.93115 0.39502 4.0449 0.39502 4.18365ZM10.7713 12.0349C10.075 12.4812 9.33502 11.7424 9.78252 11.0462C9.81252 10.9987 9.85252 10.9587 9.90002 10.9287C10.5963 10.4824 11.3363 11.2212 10.8888 11.9174C10.8575 11.9649 10.8175 12.0049 10.7713 12.0349ZM10.7713 9.93115C10.075 10.3774 9.33502 9.63865 9.78252 8.9424C9.81252 8.8949 9.85252 8.8549 9.90002 8.8249C10.5963 8.37865 11.3363 9.1174 10.8888 9.81365C10.8575 9.8599 10.8175 9.90115 10.7713 9.93115ZM10.7713 7.7024C10.075 8.14865 9.33502 7.4099 9.78252 6.71365C9.81252 6.66615 9.85252 6.62615 9.90002 6.59615C10.5963 6.1499 11.3363 6.88865 10.8888 7.5849C10.8575 7.63115 10.8175 7.6724 10.7713 7.7024ZM10.7713 5.59865C10.075 6.0449 9.33502 5.30615 9.78252 4.6099C9.81252 4.5624 9.85252 4.5224 9.90002 4.4924C10.5963 4.04615 11.3363 4.7849 10.8888 5.48115C10.8575 5.5274 10.8175 5.56865 10.7713 5.59865Z" fill="#A65F3E"/>
<path d="M0.39502 3.80865V11.9674C0.39502 12.1062 0.507519 12.2199 0.647519 12.2199H15.1425C15.2813 12.2199 15.395 12.1074 15.395 11.9674V3.80865C15.395 3.6699 15.2825 3.55615 15.1425 3.55615H0.647519C0.507519 3.55615 0.39502 3.6699 0.39502 3.80865ZM10.7713 11.6599C10.075 12.1062 9.33502 11.3674 9.78252 10.6712C9.81252 10.6237 9.85252 10.5837 9.90002 10.5537C10.5963 10.1074 11.3363 10.8462 10.8888 11.5424C10.8575 11.5899 10.8175 11.6299 10.7713 11.6599ZM10.7713 9.55615C10.075 10.0024 9.33502 9.26365 9.78252 8.5674C9.81252 8.5199 9.85252 8.4799 9.90002 8.4499C10.5963 8.00365 11.3363 8.7424 10.8888 9.43865C10.8575 9.4849 10.8175 9.52615 10.7713 9.55615ZM10.7713 7.3274C10.075 7.77365 9.33502 7.0349 9.78252 6.33865C9.81252 6.29115 9.85252 6.25115 9.90002 6.22115C10.5963 5.7749 11.3363 6.51365 10.8888 7.2099C10.8575 7.25615 10.8175 7.2974 10.7713 7.3274ZM10.7713 5.22365C10.075 5.6699 9.33502 4.93115 9.78252 4.2349C9.81252 4.1874 9.85252 4.1474 9.90002 4.1174C10.5963 3.67115 11.3363 4.4099 10.8888 5.10615C10.8575 5.1524 10.8175 5.19365 10.7713 5.22365Z" fill="#FFD54F"/>
<g opacity="0.8">
<path d="M1.88251 6.37842H5.95251" stroke="#4E342E" stroke-miterlimit="10" stroke-linecap="round"/>
<path d="M1.88251 8.31348H4.76626" stroke="#4E342E" stroke-miterlimit="10" stroke-linecap="round"/>
<path d="M6.76123 8.31348H7.36623" stroke="#4E342E" stroke-miterlimit="10" stroke-linecap="round"/>
</g>
<g opacity="0.5">
<path d="M2.07001 10.0576H1.69501V11.2201H2.07001V10.0576Z" fill="#6D4C41"/>
<path d="M5.21375 10.0576H4.83875V11.2201H5.21375V10.0576Z" fill="#6D4C41"/>
<path d="M5.89374 10.0576H5.51874V11.2201H5.89374V10.0576Z" fill="#6D4C41"/>
<path d="M3.18378 10.0576H2.43378V11.2201H3.18378V10.0576Z" fill="#6D4C41"/>
<path d="M7.08252 10.0576H6.20752V11.2201H7.08252V10.0576Z" fill="#6D4C41"/>
<path d="M4.51752 10.0576H3.51752V11.2201H4.51752V10.0576Z" fill="#6D4C41"/>
</g>
<path d="M15.255 3.55615H0.53377C0.45627 3.55615 0.39502 3.61865 0.39502 3.6949V4.9399H9.70127C9.61127 4.73115 9.62127 4.46865 9.79627 4.2124C9.82002 4.1774 9.85127 4.14615 9.88627 4.1224C10.4388 3.75615 11.0238 4.14365 11.0238 4.6674C11.0238 4.76365 11.0038 4.85615 10.9675 4.93865H15.3938V3.69365C15.395 3.61865 15.3325 3.55615 15.255 3.55615Z" fill="#E2A610"/>
<path opacity="0.5" d="M14.505 6.08496H12.2263V8.17121H14.505V6.08496Z" fill="#6D4C41"/>
<path opacity="0.8" d="M12.3725 9.26758H13.5062" stroke="#4E342E" stroke-miterlimit="10" stroke-linecap="round"/>
<path opacity="0.8" d="M12.3725 10.0576H14.1575" stroke="#4E342E" stroke-miterlimit="10" stroke-linecap="round"/>
</svg>
