<svg width="32" height="32" viewBox="0 0 32 32" fill="none" xmlns="http://www.w3.org/2000/svg">
<path d="M15.16 10.275L9.73751 3.47005C9.66251 3.37505 9.67501 3.23755 9.76501 3.15755C9.86001 3.07505 10.0025 3.08255 10.085 3.17755L15.8525 9.67505C15.935 9.77005 15.9275 9.91255 15.8325 9.99505L15.4875 10.3C15.39 10.3875 15.24 10.375 15.16 10.275Z" fill="#455A64"/>
<path d="M16.5525 10.2376L16.2425 9.96258C16.14 9.87008 16.13 9.71258 16.2225 9.61008L21.9575 3.14508C22.05 3.04258 22.2075 3.03258 22.31 3.12508C22.41 3.21258 22.4225 3.36508 22.34 3.47008L16.915 10.2101C16.8225 10.3176 16.6575 10.3326 16.5525 10.2376Z" fill="#455A64"/>
<path d="M11.9351 10.615C11.9351 9.74247 13.8701 9.03247 16.2576 9.03247C18.6451 9.03247 20.5801 9.73997 20.5801 10.615H11.9351Z" fill="#455A64"/>
<path d="M29.8925 31.0002H2.1075C1.495 31.0002 1 30.4852 1 29.8527V11.2752C1 10.6402 1.495 10.1277 2.1075 10.1277H29.895C30.505 10.1277 31.0025 10.6427 31.0025 11.2752V29.8527C31 30.4852 30.505 31.0002 29.8925 31.0002Z" fill="#82AEC0"/>
<path d="M29.0875 29.9101H2.99248C2.50248 29.9101 2.10498 29.5126 2.10498 29.0226V12.0101C2.10498 11.5201 2.50248 11.1226 2.99248 11.1226H29.0875C29.5775 11.1226 29.975 11.5201 29.975 12.0101V29.0226C29.975 29.5126 29.5775 29.9101 29.0875 29.9101Z" fill="#212121"/>
<path d="M3.84747 27.24L2.64747 29.1275C2.43747 29.4575 2.66247 29.905 3.05247 29.9075C3.05747 29.9075 3.06247 29.9075 3.06747 29.9075C3.59997 29.9075 23.1275 29.9075 23.7475 29.9075H23.765C24.2075 29.905 24.495 29.44 24.3025 29.0425L23.5525 27.4975L3.84747 27.24Z" fill="#B9E4EA"/>
<path d="M23.8624 26.3676C23.67 27.2351 23.0275 27.9051 22.2024 28.0876C20.8475 28.3901 18.3225 28.7676 14.1625 28.7676C9.79495 28.7676 6.86495 28.3526 5.28745 28.0451C4.41495 27.8751 3.72995 27.1601 3.55995 26.2376C3.16745 24.1176 2.67495 19.8801 3.57995 14.5876C3.74745 13.6076 4.49495 12.8551 5.42745 12.7276C7.10995 12.4951 10.115 12.1851 14.1625 12.1851C18.0025 12.1851 20.5749 12.4651 22.0324 12.6901C22.93 12.8301 23.6475 13.5576 23.83 14.5001C24.9125 20.0751 24.315 24.3226 23.8624 26.3676Z" fill="#2F7889" stroke="#212121" stroke-width="2" stroke-miterlimit="10"/>
<path d="M28.7225 29.1175H25.875C25.585 29.1175 25.3525 28.8825 25.3525 28.595V22.6575C25.3525 22.3675 25.5875 22.135 25.875 22.135H28.7225C29.0125 22.135 29.245 22.37 29.245 22.6575V28.595C29.245 28.8825 29.0125 29.1175 28.7225 29.1175Z" fill="#455A64"/>
<path d="M27.3 16.3C28.2513 16.3 29.0225 15.5288 29.0225 14.5775C29.0225 13.6262 28.2513 12.855 27.3 12.855C26.3487 12.855 25.5775 13.6262 25.5775 14.5775C25.5775 15.5288 26.3487 16.3 27.3 16.3Z" fill="#455A64"/>
<path d="M27.3 12.9951C27.1675 12.9951 27.0525 13.0851 27.0225 13.2126L26.7975 14.1376C26.7275 14.4251 26.7275 14.7251 26.7975 15.0151L27.0225 15.9401C27.055 16.0676 27.1675 16.1576 27.3 16.1576C27.4325 16.1576 27.5475 16.0676 27.5775 15.9401L27.8025 15.0151C27.8725 14.7276 27.8725 14.4276 27.8025 14.1376L27.5775 13.2126C27.545 13.0851 27.43 12.9951 27.3 12.9951Z" fill="#82AEC0"/>
<path d="M27.3 20.7526C28.2513 20.7526 29.0225 19.9814 29.0225 19.0301C29.0225 18.0788 28.2513 17.3076 27.3 17.3076C26.3487 17.3076 25.5775 18.0788 25.5775 19.0301C25.5775 19.9814 26.3487 20.7526 27.3 20.7526Z" fill="#455A64"/>
<path d="M26.0825 18.0201C25.9975 18.1226 25.995 18.2676 26.0725 18.3726L26.64 19.1351C26.8175 19.3726 27.0475 19.5651 27.315 19.6951L28.17 20.1101C28.2875 20.1676 28.43 20.1376 28.515 20.0351C28.6 19.9326 28.6025 19.7876 28.525 19.6826L27.9575 18.9201C27.78 18.6826 27.55 18.4901 27.2825 18.3601L26.4275 17.9451C26.31 17.8876 26.1675 17.9201 26.0825 18.0201Z" fill="#82AEC0"/>
<path d="M7.77 13.9452C8.19 13.8952 8.985 13.9302 9.265 14.7827C9.545 15.6352 8.93 15.8652 8.6 16.1177C7.6525 16.8402 7.1825 17.1152 6.6125 17.9027C6.1575 18.5327 5.3625 18.3352 5.125 17.9202C4.935 17.5852 4.795 16.5102 5.1975 15.8002C6.065 14.2802 7.35 13.9952 7.77 13.9452Z" fill="url(#paint0_linear_118_525)"/>
<defs>
<linearGradient id="paint0_linear_118_525" x1="7.33878" y1="8.78662" x2="7.0776" y2="18.2641" gradientUnits="userSpaceOnUse">
<stop stop-color="white"/>
<stop offset="1" stop-color="white" stop-opacity="0"/>
</linearGradient>
</defs>
</svg>
