<svg width="23" height="17" viewBox="0 0 23 17" fill="none" xmlns="http://www.w3.org/2000/svg">
<g clip-path="url(#clip0_145_33)">
<path d="M15.4167 14.444V16.4793H1.16992V14.444C1.16992 14.444 1.16992 10.3735 8.29332 10.3735C15.4167 10.3735 15.4167 14.444 15.4167 14.444ZM11.855 4.77658C11.855 4.07214 11.6461 3.38352 11.2548 2.79781C10.8634 2.21209 10.3071 1.75558 9.65632 1.486C9.00551 1.21642 8.28937 1.14589 7.59847 1.28332C6.90756 1.42075 6.27293 1.75997 5.77482 2.25808C5.27671 2.75619 4.93749 3.39083 4.80006 4.08173C4.66263 4.77263 4.73316 5.48877 5.00274 6.13958C5.27232 6.7904 5.72883 7.34666 6.31455 7.73802C6.90026 8.12939 7.58888 8.33828 8.29332 8.33828C9.23794 8.33828 10.1439 7.96303 10.8118 7.29508C11.4798 6.62713 11.855 5.7212 11.855 4.77658ZM15.3557 10.3735C15.9812 10.8577 16.4931 11.473 16.8553 12.1763C17.2175 12.8795 17.4212 13.6536 17.452 14.444V16.4793H21.5225V14.444C21.5225 14.444 21.5225 10.7501 15.3557 10.3735ZM14.3991 1.21488C13.6987 1.21162 13.0139 1.42098 12.4351 1.81528C13.0532 2.67898 13.3856 3.71447 13.3856 4.77658C13.3856 5.83869 13.0532 6.87418 12.4351 7.73788C13.0139 8.13218 13.6987 8.34154 14.3991 8.33828C15.3437 8.33828 16.2496 7.96303 16.9176 7.29508C17.5855 6.62713 17.9608 5.7212 17.9608 4.77658C17.9608 3.83196 17.5855 2.92603 16.9176 2.25808C16.2496 1.59013 15.3437 1.21488 14.3991 1.21488Z" fill="#555555"/>
</g>
<defs>
<clipPath id="clip0_145_33">
<rect width="21.9808" height="15.875" fill="white" transform="translate(0.355774 0.807861)"/>
</clipPath>
</defs>
</svg>
