<svg width="22" height="18" viewBox="0 0 22 18" fill="none" xmlns="http://www.w3.org/2000/svg">
<path fill-rule="evenodd" clip-rule="evenodd" d="M8.694 0.25H11.806C13.644 0.25 15.1 0.25 16.239 0.403C17.411 0.561 18.36 0.893 19.109 1.641C20.033 2.566 20.328 3.804 20.435 5.411C21.012 5.664 21.448 6.201 21.495 6.881C21.5 6.942 21.5 7.007 21.5 7.067V10.933C21.5 10.993 21.5 11.058 21.496 11.118C21.448 11.798 21.012 12.336 20.435 12.59C20.328 14.196 20.033 15.434 19.109 16.359C18.36 17.107 17.411 17.439 16.239 17.597C15.099 17.75 13.644 17.75 11.806 17.75H8.694C6.856 17.75 5.4 17.75 4.261 17.597C3.089 17.439 2.14 17.107 1.391 16.359C0.643 15.61 0.311 14.661 0.153 13.489C0 12.349 0 10.894 0 9.056V8.944C0 7.106 0 5.65 0.153 4.511C0.311 3.339 0.643 2.39 1.391 1.641C2.14 0.893 3.089 0.561 4.261 0.403C5.401 0.25 6.856 0.25 8.694 0.25ZM18.918 12.75H16.98C14.835 12.75 12.999 11.122 12.999 9C12.999 6.878 14.835 5.25 16.979 5.25H18.917C18.803 3.909 18.546 3.2 18.047 2.702C17.624 2.279 17.044 2.025 16.038 1.89C15.011 1.752 13.656 1.75 11.749 1.75H8.749C6.842 1.75 5.488 1.752 4.459 1.89C3.454 2.025 2.874 2.279 2.451 2.702C2.028 3.125 1.775 3.705 1.64 4.71C1.502 5.738 1.5 7.092 1.5 8.999C1.5 10.906 1.502 12.261 1.64 13.289C1.775 14.294 2.029 14.874 2.452 15.297C2.875 15.72 3.455 15.974 4.461 16.109C5.489 16.247 6.843 16.249 8.75 16.249H11.75C13.657 16.249 15.012 16.247 16.04 16.109C17.045 15.974 17.625 15.72 18.048 15.297C18.547 14.799 18.804 14.091 18.918 12.749M4 5C4 4.80109 4.07902 4.61032 4.21967 4.46967C4.36032 4.32902 4.55109 4.25 4.75 4.25H8.75C8.94891 4.25 9.13968 4.32902 9.28033 4.46967C9.42098 4.61032 9.5 4.80109 9.5 5C9.5 5.19891 9.42098 5.38968 9.28033 5.53033C9.13968 5.67098 8.94891 5.75 8.75 5.75H4.75C4.55109 5.75 4.36032 5.67098 4.21967 5.53033C4.07902 5.38968 4 5.19891 4 5ZM19.674 6.75H16.98C15.556 6.75 14.499 7.809 14.499 9C14.499 10.191 15.556 11.25 16.979 11.25H19.697C19.903 11.237 19.992 11.098 19.999 11.014V6.986C19.992 6.902 19.903 6.763 19.697 6.751L19.674 6.75Z" fill="white"/>
</svg>
